<svg width="128" height="128" viewBox="0 0 128 128" fill="none" xmlns="http://www.w3.org/2000/svg">
<path d="M0 51.1679C0 33.2574 0 24.3022 3.4856 17.4613C6.55163 11.4439 11.4439 6.55163 17.4613 3.4856C24.3022 0 33.2574 0 51.1679 0H76.8321C94.7426 0 103.698 0 110.539 3.4856C116.556 6.55163 121.448 11.4439 124.514 17.4613C128 24.3022 128 33.2574 128 51.1679V76.8321C128 94.7426 128 103.698 124.514 110.539C121.448 116.556 116.556 121.448 110.539 124.514C103.698 128 94.7426 128 76.8321 128H51.1679C33.2574 128 24.3022 128 17.4613 124.514C11.4439 121.448 6.55163 116.556 3.4856 110.539C0 103.698 0 94.7426 0 76.8321V51.1679Z" fill="url(#paint0_linear_2418_3943)"/>
<path d="M104.253 65.457C103.226 82.8281 91.2042 97.2396 75.0474 101.832L77.6206 95.9121C89.744 90.883 98.4847 79.3453 99.481 65.6572L104.253 65.457ZM28.5171 65.6572C29.5132 79.3447 38.2531 90.8826 50.3755 95.9121L52.9478 101.831C36.7927 97.2375 24.7715 82.8269 23.7437 65.457L28.5171 65.6572ZM50.3755 30.1641C38.1494 35.2365 29.3644 46.9292 28.4937 60.7705L23.7202 61.042C24.5763 43.4827 36.6618 28.8724 52.9487 24.2422L50.3755 30.1641ZM75.0493 24.2461C91.3358 28.8766 103.421 43.4832 104.277 61.042L99.5044 60.7705C98.6335 46.9289 89.8482 35.2363 77.6216 30.1641L75.0493 24.2461Z" fill="#4257E8"/>
<path d="M66.2714 110.051C65.4082 112.036 62.5926 112.036 61.7294 110.051L41.8055 66.2127L50.6428 66.5839C52.2399 72.4644 57.6131 76.7899 63.9992 76.7901C70.3854 76.7901 75.7583 72.4644 77.3555 66.5839L86.1941 66.2127L66.2714 110.051Z" fill="white"/>
<path d="M61.7294 16.014C62.5924 14.0279 65.4083 14.0279 66.2714 16.014L86.2666 60.0164L77.4124 59.5133C76.0529 54.1885 71.6062 50.0982 66.0912 49.2624L64.8432 35.1381C64.8042 34.7016 64.4387 34.3666 64.0004 34.3666C63.562 34.3666 63.1966 34.7016 63.1575 35.1381L61.9083 49.2624C56.3932 50.0982 51.9454 54.1883 50.586 59.5133L41.7329 60.0152L61.7294 16.014Z" fill="url(#paint1_linear_2418_3943)"/>
<defs>
<linearGradient id="paint0_linear_2418_3943" x1="17.3494" y1="-5.9195" x2="17.3494" y2="116.975" gradientUnits="userSpaceOnUse">
<stop stop-color="#1B0088"/>
<stop offset="0.8" stop-color="#0B032C"/>
</linearGradient>
<linearGradient id="paint1_linear_2418_3943" x1="63.9998" y1="12.5142" x2="63.9998" y2="113.55" gradientUnits="userSpaceOnUse">
<stop offset="0.600962" stop-color="#ED1650"/>
<stop offset="1" stop-color="#B20F3B"/>
</linearGradient>
</defs>
</svg>
