<svg width="64" height="64" viewBox="0 0 64 64" fill="none" xmlns="http://www.w3.org/2000/svg">
<path d="M0 25.5839C0 16.6287 0 12.1511 1.7428 8.73067C3.27581 5.72197 5.72197 3.27581 8.73067 1.7428C12.1511 0 16.6287 0 25.5839 0H38.4161C47.3713 0 51.8489 0 55.2693 1.7428C58.278 3.27581 60.7242 5.72197 62.2572 8.73067C64 12.1511 64 16.6287 64 25.5839V38.4161C64 47.3713 64 51.8489 62.2572 55.2693C60.7242 58.278 58.278 60.7242 55.2693 62.2572C51.8489 64 47.3713 64 38.4161 64H25.5839C16.6287 64 12.1511 64 8.73067 62.2572C5.72197 60.7242 3.27581 58.278 1.7428 55.2693C0 51.8489 0 47.3713 0 38.4161V25.5839Z" fill="url(#paint0_linear_2418_3953)"/>
<path d="M14.2598 32.8281C14.7584 39.6712 19.1277 45.4396 25.1885 47.9541L26.4746 50.9141C18.3976 48.6175 12.3858 41.4127 11.8711 32.7285L14.2598 32.8281ZM52.127 32.7285C51.6122 41.4132 45.6013 48.618 37.5234 50.9141L38.8105 47.9541C44.8718 45.4398 49.2406 39.6715 49.7393 32.8281L52.127 32.7285ZM25.1885 15.0801C19.0749 17.6164 14.6839 23.4635 14.249 30.3848L11.8604 30.5205C12.2878 21.7402 18.3307 14.4344 26.4746 12.1191L25.1885 15.0801ZM37.5254 12.1211C45.6689 14.4365 51.7103 21.7406 52.1377 30.5205L49.75 30.3848C49.315 23.4635 44.9251 17.6164 38.8115 15.0801L37.5254 12.1211Z" fill="#4257E8"/>
<path d="M33.1359 55.0238C32.7043 56.0166 31.2965 56.0166 30.8649 55.0238L20.903 33.1049L25.3216 33.2905C26.1202 36.2307 28.8068 38.3935 31.9998 38.3936C35.1929 38.3936 37.8794 36.2307 38.678 33.2905L43.0973 33.1049L33.1359 55.0238Z" fill="white"/>
<path d="M30.8649 8.00551C31.2964 7.01249 32.7044 7.01249 33.1359 8.00551L43.1335 30.0067L38.7064 29.7552C38.0267 27.0928 35.8033 25.0476 33.0458 24.6297L32.4219 17.5676C32.4023 17.3493 32.2196 17.1818 32.0004 17.1818C31.7813 17.1818 31.5985 17.3493 31.579 17.5676L30.9544 24.6297C28.1968 25.0476 25.9729 27.0927 25.2932 29.7552L20.8667 30.0061L30.8649 8.00551Z" fill="url(#paint1_linear_2418_3953)"/>
<defs>
<linearGradient id="paint0_linear_2418_3953" x1="8.67472" y1="-2.95975" x2="8.67472" y2="58.4874" gradientUnits="userSpaceOnUse">
<stop stop-color="#1B0088"/>
<stop offset="0.8" stop-color="#0B032C"/>
</linearGradient>
<linearGradient id="paint1_linear_2418_3953" x1="32.0001" y1="6.25564" x2="32.0001" y2="56.7735" gradientUnits="userSpaceOnUse">
<stop offset="0.600962" stop-color="#ED1650"/>
<stop offset="1" stop-color="#B20F3B"/>
</linearGradient>
</defs>
</svg>
