<svg width="16" height="16" viewBox="0 0 16 16" fill="none" xmlns="http://www.w3.org/2000/svg">
<path d="M0 6.39598C0 4.15718 0 3.03778 0.4357 2.18267C0.818953 1.43049 1.43049 0.818953 2.18267 0.4357C3.03778 0 4.15718 0 6.39598 0H9.60402C11.8428 0 12.9622 0 13.8173 0.4357C14.5695 0.818953 15.181 1.43049 15.5643 2.18267C16 3.03778 16 4.15718 16 6.39598V9.60402C16 11.8428 16 12.9622 15.5643 13.8173C15.181 14.5695 14.5695 15.181 13.8173 15.5643C12.9622 16 11.8428 16 9.60402 16H6.39598C4.15718 16 3.03778 16 2.18267 15.5643C1.43049 15.181 0.818953 14.5695 0.4357 13.8173C0 12.9622 0 11.8428 0 9.60402V6.39598Z" fill="#0F004F"/>
<path d="M3.56787 8.20508C3.6934 9.91477 4.78583 11.356 6.30029 11.9844L6.62158 12.7236C4.60301 12.1496 3.10067 10.3498 2.97119 8.17969L3.56787 8.20508ZM13.0337 8.17969C12.9042 10.3498 11.4029 12.1497 9.38428 12.7236L9.70557 11.9844C11.2201 11.3561 12.3114 9.9148 12.437 8.20508L13.0337 8.17969ZM6.30029 3.76562C4.77104 4.40007 3.67359 5.86312 3.56592 7.59473L2.96826 7.62891C3.07379 5.43244 4.58467 3.60452 6.62158 3.02539L6.30029 3.76562ZM9.38428 3.02539C11.4209 3.60442 12.9307 5.43194 13.0366 7.62793L12.439 7.59473C12.3313 5.86312 11.2348 4.40004 9.70557 3.76562L9.38428 3.02539Z" fill="white"/>
<path d="M8.28557 13.7543C8.17767 14.0024 7.82572 14.0024 7.71782 13.7543L5.22733 8.27451L6.332 8.32091C6.53163 9.05597 7.20328 9.59666 8.00154 9.59669C8.79982 9.59669 9.47144 9.05598 9.67109 8.32091L10.7759 8.27451L8.28557 13.7543Z" fill="white"/>
<path d="M7.71782 1.99967C7.8257 1.75141 8.17769 1.75141 8.28557 1.99967L10.785 7.49997L9.67819 7.43709C9.50825 6.77148 8.95242 6.2602 8.26305 6.15572L8.10705 4.39019C8.10217 4.33563 8.05649 4.29375 8.00169 4.29375C7.9469 4.29375 7.90122 4.33563 7.89634 4.39019L7.74019 6.15572C7.05079 6.2602 6.49482 6.77146 6.32489 7.43709L5.21826 7.49982L7.71782 1.99967Z" fill="url(#paint0_linear_2418_3973)"/>
<defs>
<linearGradient id="paint0_linear_2418_3973" x1="8.00162" y1="1.5622" x2="8.00162" y2="14.1917" gradientUnits="userSpaceOnUse">
<stop offset="0.600962" stop-color="#ED1650"/>
<stop offset="1" stop-color="#B20F3B"/>
</linearGradient>
</defs>
</svg>
