<svg width="264" height="264" viewBox="0 0 264 264" fill="none" xmlns="http://www.w3.org/2000/svg">
<g filter="url(#filter0_d_2418_3933)">
<path d="M4 102.336C4 66.5149 4 48.6044 10.9712 34.9227C17.1033 22.8879 26.8879 13.1033 38.9227 6.97121C52.6044 0 70.5149 0 106.336 0H157.664C193.485 0 211.396 0 225.077 6.97121C237.112 13.1033 246.897 22.8879 253.029 34.9227C260 48.6044 260 66.5149 260 102.336V153.664C260 189.485 260 207.396 253.029 221.077C246.897 233.112 237.112 242.897 225.077 249.029C211.396 256 193.485 256 157.664 256H106.336C70.5149 256 52.6044 256 38.9227 249.029C26.8879 242.897 17.1033 233.112 10.9712 221.077C4 207.396 4 189.485 4 153.664V102.336Z" fill="url(#paint0_linear_2418_3933)"/>
</g>
<path d="M212.512 130.917C210.456 165.659 186.411 194.483 154.098 203.668L159.244 191.827C183.491 181.769 200.972 158.694 202.965 131.318L212.512 130.917ZM61.0371 131.317C63.0294 158.692 80.5099 181.768 104.755 191.827L109.898 203.665C77.5878 194.478 53.5424 165.656 51.4873 130.916L61.0371 131.317ZM104.755 60.3311C80.3021 70.4759 62.7315 93.8617 60.9902 121.545L51.4424 122.087C53.1545 86.968 77.3271 57.7474 109.901 48.4873L104.755 60.3311ZM154.103 48.4951C186.675 57.7562 210.847 86.9695 212.559 122.087L203.012 121.545C201.27 93.8612 183.7 70.4756 159.246 60.3311L154.103 48.4951Z" fill="#4257E8"/>
<path d="M136.544 220.106C134.818 224.077 129.187 224.077 127.46 220.106L87.6124 132.43L105.287 133.173C108.481 144.934 119.228 153.585 132 153.585C144.772 153.585 155.518 144.934 158.712 133.173L176.39 132.43L136.544 220.106Z" fill="white"/>
<path d="M127.46 32.0328C129.186 28.0607 134.818 28.0607 136.544 32.0328L176.535 120.038L158.826 119.032C156.107 108.382 147.214 100.201 136.184 98.5296L133.688 70.2811C133.61 69.4081 132.879 68.7381 132.002 68.7381C131.126 68.7381 130.395 69.4081 130.316 70.2811L127.818 98.5296C116.788 100.201 107.892 108.381 105.173 119.032L87.4673 120.035L127.46 32.0328Z" fill="url(#paint1_linear_2418_3933)"/>
<defs>
<filter id="filter0_d_2418_3933" x="0" y="0" width="264" height="264" filterUnits="userSpaceOnUse" color-interpolation-filters="sRGB">
<feFlood flood-opacity="0" result="BackgroundImageFix"/>
<feColorMatrix in="SourceAlpha" type="matrix" values="0 0 0 0 0 0 0 0 0 0 0 0 0 0 0 0 0 0 127 0" result="hardAlpha"/>
<feOffset dy="4"/>
<feGaussianBlur stdDeviation="2"/>
<feComposite in2="hardAlpha" operator="out"/>
<feColorMatrix type="matrix" values="0 0 0 0 0 0 0 0 0 0 0 0 0 0 0 0 0 0 0.25 0"/>
<feBlend mode="normal" in2="BackgroundImageFix" result="effect1_dropShadow_2418_3933"/>
<feBlend mode="normal" in="SourceGraphic" in2="effect1_dropShadow_2418_3933" result="shape"/>
</filter>
<linearGradient id="paint0_linear_2418_3933" x1="38.6989" y1="-11.839" x2="38.6989" y2="233.95" gradientUnits="userSpaceOnUse">
<stop stop-color="#1B0088"/>
<stop offset="0.8" stop-color="#0B032C"/>
</linearGradient>
<linearGradient id="paint1_linear_2418_3933" x1="132.001" y1="25.0333" x2="132.001" y2="227.105" gradientUnits="userSpaceOnUse">
<stop offset="0.600962" stop-color="#ED1650"/>
<stop offset="1" stop-color="#B20F3B"/>
</linearGradient>
</defs>
</svg>
