<svg width="32" height="32" viewBox="0 0 32 32" fill="none" xmlns="http://www.w3.org/2000/svg">
<path d="M0 12.792C0 8.31436 0 6.07556 0.871401 4.36534C1.63791 2.86098 2.86098 1.63791 4.36534 0.871401C6.07556 0 8.31436 0 12.792 0H19.208C23.6856 0 25.9244 0 27.6347 0.871401C29.139 1.63791 30.3621 2.86098 31.1286 4.36534C32 6.07556 32 8.31436 32 12.792V19.208C32 23.6856 32 25.9244 31.1286 27.6347C30.3621 29.139 29.139 30.3621 27.6347 31.1286C25.9244 32 23.6856 32 19.208 32H12.792C8.31436 32 6.07556 32 4.36534 31.1286C2.86098 30.3621 1.63791 29.139 0.871401 27.6347C0 25.9244 0 23.6856 0 19.208V12.792Z" fill="url(#paint0_linear_2418_3963)"/>
<path d="M7.13135 16.416C7.38099 19.8371 9.56607 22.7204 12.5962 23.9775L13.2388 25.458C9.20027 24.3097 6.19534 20.7073 5.93799 16.3652L7.13135 16.416ZM26.064 16.3652C25.8066 20.7076 22.8021 24.31 18.7632 25.458L19.4067 23.9775C22.4371 22.7205 24.6209 19.8372 24.8706 16.416L26.064 16.3652ZM12.5962 7.54102C9.53912 8.80932 7.34258 11.7332 7.12549 15.1943L5.93213 15.2617C6.14564 10.8714 9.16678 7.21828 13.2388 6.06055L12.5962 7.54102ZM18.7642 6.06152C22.8361 7.21924 25.8563 10.8715 26.0698 15.2617L24.8765 15.1934C24.659 11.7328 22.4644 8.80923 19.4077 7.54102L18.7642 6.06152Z" fill="#4257E8"/>
<path d="M16.5692 27.5124C16.3534 28.0088 15.6495 28.0088 15.4337 27.5124L10.4527 16.5529L12.662 16.6457C13.0613 18.1159 14.4046 19.1972 16.0011 19.1973C17.5977 19.1973 18.9409 18.1159 19.3402 16.6457L21.5499 16.5529L16.5692 27.5124Z" fill="white"/>
<path d="M15.4337 4.00324C15.6494 3.50673 16.3534 3.50673 16.5692 4.00324L21.568 15.0038L19.3544 14.8781C19.0146 13.5469 17.9029 12.5243 16.5241 12.3153L16.2121 8.78428C16.2024 8.67516 16.111 8.5914 16.0014 8.5914C15.8918 8.5914 15.8005 8.67516 15.7907 8.78428L15.4784 12.3153C14.0996 12.5243 12.9877 13.5468 12.6478 14.8781L10.4346 15.0035L15.4337 4.00324Z" fill="url(#paint1_linear_2418_3963)"/>
<defs>
<linearGradient id="paint0_linear_2418_3963" x1="4.33736" y1="-1.47987" x2="4.33736" y2="29.2437" gradientUnits="userSpaceOnUse">
<stop stop-color="#1B0088"/>
<stop offset="0.8" stop-color="#0B032C"/>
</linearGradient>
<linearGradient id="paint1_linear_2418_3963" x1="16.0013" y1="3.12831" x2="16.0013" y2="28.3872" gradientUnits="userSpaceOnUse">
<stop offset="0.600962" stop-color="#ED1650"/>
<stop offset="1" stop-color="#B20F3B"/>
</linearGradient>
</defs>
</svg>
