<svg width="476" height="90" viewBox="0 0 476 90" fill="none" xmlns="http://www.w3.org/2000/svg">
<path d="M74.3389 47.0156C73.3893 63.05 62.2926 76.3526 47.3789 80.5918L49.7539 75.127C60.9445 70.4848 69.0133 59.8349 69.9336 47.2002L74.3389 47.0156ZM4.42676 47.2002C5.3469 59.8344 13.4147 70.4845 24.6045 75.127L26.9785 80.5908C12.0664 76.3507 0.970054 63.0489 0.0205078 47.0156L4.42676 47.2002ZM24.6045 14.4346C13.3179 19.1171 5.20843 29.9116 4.40527 42.6895L0 42.9395C0.789717 26.73 11.9447 13.243 26.9795 8.96875L24.6045 14.4346ZM47.3809 8.97168C62.4153 13.2462 73.5707 26.7304 74.3604 42.9395L69.9551 42.6895C69.1518 29.9114 61.0418 19.117 49.7549 14.4346L47.3809 8.97168Z" fill="#0F004F"/>
<path d="M39.2764 88.1801C38.4796 90.0129 35.8805 90.0129 35.0837 88.1801L16.692 47.7134L24.8497 48.056C26.324 53.4843 31.284 57.4772 37.1789 57.4774C43.0741 57.4774 48.0338 53.4843 49.5082 48.056L57.667 47.7134L39.2764 88.1801Z" fill="#1B0088"/>
<path d="M35.0837 1.37499C35.8804 -0.45833 38.4797 -0.45833 39.2764 1.37499L57.734 41.9936L49.5606 41.5292C48.3057 36.6138 44.201 32.8381 39.1101 32.0665L37.9581 19.0285C37.9221 18.6255 37.5847 18.3163 37.1801 18.3163C36.7754 18.3163 36.4381 18.6255 36.402 19.0285L35.2489 32.0665C30.1579 32.8381 26.0521 36.6137 24.7972 41.5292L16.625 41.9924L35.0837 1.37499Z" fill="url(#paint0_linear_2418_3836)"/>
<path d="M434.801 21.9023C442.481 21.9023 448.241 23.5023 451.057 24.5263L449.329 29.3263C447.025 28.3663 441.905 26.7023 434.225 26.7023C425.009 26.7023 419.889 30.1583 419.889 34.4463C419.889 38.4783 423.153 40.5903 431.537 41.9983L435.377 42.6383C446.449 44.4943 452.913 48.0143 452.913 55.1823C452.913 63.0543 445.745 68.3023 432.369 68.3023C422.001 68.3023 415.089 65.4863 412.977 64.2063L414.641 59.4703C416.625 60.8783 423.793 63.4383 433.009 63.5023C442.993 63.5023 447.601 60.1743 447.601 55.5023C447.601 51.2143 443.377 48.9103 434.225 47.3743L430.385 46.7343C420.785 45.1343 414.577 41.8703 414.577 34.7023C414.577 27.1503 422.385 21.9023 434.801 21.9023Z" fill="#4D4D4D"/>
<path d="M390.363 21.9023C398.043 21.9023 403.803 23.5023 406.619 24.5263L404.891 29.3263C402.587 28.3663 397.467 26.7023 389.787 26.7023C380.571 26.7023 375.451 30.1583 375.451 34.4463C375.451 38.4783 378.715 40.5903 387.099 41.9983L390.939 42.6383C402.011 44.4943 408.475 48.0143 408.475 55.1823C408.475 63.0543 401.307 68.3023 387.931 68.3023C377.563 68.3023 370.651 65.4863 368.539 64.2063L370.203 59.4703C372.187 60.8783 379.355 63.4383 388.571 63.5023C398.555 63.5023 403.163 60.1743 403.163 55.5023C403.163 51.2143 398.939 48.9103 389.787 47.3743L385.947 46.7343C376.347 45.1343 370.139 41.8703 370.139 34.7023C370.139 27.1503 377.947 21.9023 390.363 21.9023Z" fill="#4D4D4D"/>
<path d="M352.491 50.4459L340.523 27.2139L328.619 50.4459H352.491ZM361.259 67.4699L354.987 55.2459H326.187L319.915 67.4699H314.219L337.515 22.6699H340.971C342.763 22.6699 343.787 23.2459 344.555 24.7179L366.955 67.4699H361.259Z" fill="#4D4D4D"/>
<path d="M292.835 48.5259C306.147 48.5259 310.883 43.3419 310.883 37.1339C310.883 32.0779 307.299 27.4699 297.123 27.4699H279.011V45.7099C282.659 47.3099 287.779 48.5259 292.835 48.5259ZM292.963 53.3259C287.651 53.3259 282.275 52.2379 279.011 50.6379V67.4699H273.699V22.6699H297.635C309.603 22.6699 316.131 28.4939 316.131 36.9419C316.131 46.9259 308.131 53.3259 292.963 53.3259Z" fill="#4D4D4D"/>
<path d="M227.997 56.5259L214.045 27.5339L202.589 67.4699H197.149L210.269 22.6699H214.557C216.413 22.6699 217.437 23.3739 218.141 24.7819L231.773 52.9419L246.621 22.6699H251.165C253.213 22.6699 254.173 23.4379 254.685 25.3579L266.333 67.4699H261.085L249.885 27.2779L234.461 58.3819H231.133C229.533 58.3819 228.637 57.8699 227.997 56.5259Z" fill="#4D4D4D"/>
<path d="M168.45 21.9023C184.13 21.9023 192.962 32.3343 192.962 44.8783C192.962 57.6143 184.13 68.2383 168.45 68.2383C152.578 68.2383 143.874 57.6143 143.874 44.8783C143.874 32.3343 152.642 21.9023 168.45 21.9023ZM168.45 26.7023C156.482 26.7023 149.186 34.1263 149.186 44.8783C149.186 55.7583 156.482 63.4383 168.45 63.4383C180.418 63.4383 187.65 55.7583 187.65 44.8783C187.65 34.1263 180.418 26.7023 168.45 26.7023Z" fill="#4D4D4D"/>
<path d="M123.046 21.9668C132.262 21.9668 138.79 25.1668 138.79 25.1668L137.062 29.7108C137.062 29.7108 131.43 26.7668 123.302 26.7668C112.678 26.7668 102.438 33.0388 102.438 45.3908C102.438 57.4868 112.486 63.3748 123.494 63.3748C132.07 63.3748 137.83 60.1748 137.83 60.1748L139.366 64.7188C139.366 64.7188 132.774 68.1748 123.238 68.1748C108.774 68.1748 97.0615 60.3028 97.0615 45.3908C97.0615 30.2868 108.966 21.9668 123.046 21.9668Z" fill="#4D4D4D"/>
<defs>
<linearGradient id="paint0_linear_2418_3836" x1="37.1795" y1="-1.85563" x2="37.1795" y2="91.4103" gradientUnits="userSpaceOnUse">
<stop offset="0.245192" stop-color="#ED1650"/>
<stop offset="0.831731" stop-color="#B20F3B"/>
</linearGradient>
</defs>
</svg>
