<svg width="476" height="90" viewBox="0 0 476 90" fill="none" xmlns="http://www.w3.org/2000/svg">
<path d="M74.3389 47.0156C73.3893 63.05 62.2926 76.3526 47.3789 80.5918L49.7539 75.127C60.9445 70.4848 69.0133 59.8349 69.9336 47.2002L74.3389 47.0156ZM4.42676 47.2002C5.3469 59.8344 13.4147 70.4845 24.6045 75.127L26.9785 80.5908C12.0664 76.3507 0.970054 63.0489 0.0205078 47.0156L4.42676 47.2002ZM24.6045 14.4346C13.3179 19.1171 5.20843 29.9116 4.40527 42.6895L0 42.9395C0.789717 26.73 11.9447 13.243 26.9795 8.96875L24.6045 14.4346ZM47.3809 8.97168C62.4153 13.2462 73.5707 26.7304 74.3604 42.9395L69.9551 42.6895C69.1518 29.9114 61.0418 19.117 49.7549 14.4346L47.3809 8.97168Z" fill="white"/>
<path d="M39.2764 88.1801C38.4796 90.0129 35.8805 90.0129 35.0837 88.1801L16.692 47.7134L24.8497 48.056C26.324 53.4843 31.284 57.4772 37.1789 57.4774C43.0741 57.4774 48.0338 53.4843 49.5082 48.056L57.667 47.7134L39.2764 88.1801Z" fill="white"/>
<path d="M35.0837 1.37499C35.8804 -0.45833 38.4797 -0.45833 39.2764 1.37499L57.734 41.9936L49.5606 41.5292C48.3057 36.6138 44.201 32.8381 39.1101 32.0665L37.9581 19.0285C37.9221 18.6255 37.5847 18.3163 37.1801 18.3163C36.7754 18.3163 36.4381 18.6255 36.402 19.0285L35.2489 32.0665C30.1579 32.8381 26.0521 36.6137 24.7972 41.5292L16.625 41.9924L35.0837 1.37499Z" fill="white"/>
<path d="M434.801 21.9062C442.481 21.9062 448.241 23.5062 451.057 24.5303L449.329 29.3302C447.025 28.3703 441.905 26.7062 434.225 26.7062C425.009 26.7062 419.889 30.1623 419.889 34.4502C419.889 38.4823 423.153 40.5942 431.537 42.0022L435.377 42.6423C446.449 44.4982 452.913 48.0182 452.913 55.1862C452.913 63.0582 445.745 68.3063 432.369 68.3063C422.001 68.3063 415.089 65.4903 412.977 64.2103L414.641 59.4743C416.625 60.8823 423.793 63.4423 433.009 63.5063C442.993 63.5063 447.601 60.1782 447.601 55.5062C447.601 51.2182 443.377 48.9142 434.225 47.3783L430.385 46.7383C420.785 45.1383 414.577 41.8743 414.577 34.7062C414.577 27.1542 422.385 21.9062 434.801 21.9062Z" fill="white"/>
<path d="M390.363 21.9062C398.043 21.9062 403.803 23.5062 406.619 24.5303L404.891 29.3302C402.587 28.3703 397.467 26.7062 389.787 26.7062C380.571 26.7062 375.451 30.1623 375.451 34.4502C375.451 38.4823 378.715 40.5942 387.099 42.0022L390.939 42.6423C402.011 44.4982 408.475 48.0182 408.475 55.1862C408.475 63.0582 401.307 68.3063 387.931 68.3063C377.563 68.3063 370.651 65.4903 368.539 64.2103L370.203 59.4743C372.187 60.8823 379.355 63.4423 388.571 63.5063C398.555 63.5063 403.163 60.1782 403.163 55.5062C403.163 51.2182 398.939 48.9142 389.787 47.3783L385.947 46.7383C376.347 45.1383 370.139 41.8743 370.139 34.7062C370.139 27.1542 377.947 21.9062 390.363 21.9062Z" fill="white"/>
<path d="M352.491 50.4498L340.523 27.2178L328.619 50.4498H352.491ZM361.259 67.4738L354.987 55.2498H326.187L319.915 67.4738H314.219L337.515 22.6738H340.971C342.763 22.6738 343.787 23.2498 344.555 24.7218L366.955 67.4738H361.259Z" fill="white"/>
<path d="M292.835 48.5298C306.147 48.5298 310.883 43.3458 310.883 37.1378C310.883 32.0818 307.299 27.4738 297.123 27.4738H279.011V45.7138C282.659 47.3138 287.779 48.5298 292.835 48.5298ZM292.963 53.3298C287.651 53.3298 282.275 52.2418 279.011 50.6418V67.4738H273.699V22.6738H297.635C309.603 22.6738 316.131 28.4978 316.131 36.9458C316.131 46.9298 308.131 53.3298 292.963 53.3298Z" fill="white"/>
<path d="M227.997 56.5298L214.045 27.5378L202.589 67.4738H197.149L210.269 22.6738H214.557C216.413 22.6738 217.437 23.3778 218.141 24.7858L231.773 52.9458L246.621 22.6738H251.165C253.213 22.6738 254.173 23.4418 254.685 25.3618L266.333 67.4738H261.085L249.885 27.2818L234.461 58.3858H231.133C229.533 58.3858 228.637 57.8738 227.997 56.5298Z" fill="white"/>
<path d="M168.45 21.9062C184.13 21.9062 192.962 32.3382 192.962 44.8822C192.962 57.6182 184.13 68.2423 168.45 68.2423C152.578 68.2423 143.874 57.6182 143.874 44.8822C143.874 32.3382 152.642 21.9062 168.45 21.9062ZM168.45 26.7062C156.482 26.7062 149.186 34.1302 149.186 44.8822C149.186 55.7622 156.482 63.4422 168.45 63.4422C180.418 63.4422 187.65 55.7622 187.65 44.8822C187.65 34.1302 180.418 26.7062 168.45 26.7062Z" fill="white"/>
<path d="M123.046 21.9707C132.262 21.9707 138.79 25.1707 138.79 25.1707L137.062 29.7147C137.062 29.7147 131.43 26.7707 123.302 26.7707C112.678 26.7707 102.438 33.0427 102.438 45.3947C102.438 57.4907 112.486 63.3787 123.494 63.3787C132.07 63.3787 137.83 60.1787 137.83 60.1787L139.366 64.7227C139.366 64.7227 132.774 68.1787 123.238 68.1787C108.774 68.1787 97.0615 60.3067 97.0615 45.3947C97.0615 30.2907 108.966 21.9707 123.046 21.9707Z" fill="white"/>
</svg>
